<?xml version="1.0" encoding="UTF-8" standalone="no"?><!DOCTYPE svg PUBLIC "-//W3C//DTD SVG 1.1//EN" "http://www.w3.org/Graphics/SVG/1.1/DTD/svg11.dtd"><svg width="100%" height="100%" viewBox="0 0 30 30" version="1.1" xmlns="http://www.w3.org/2000/svg" xmlns:xlink="http://www.w3.org/1999/xlink" xml:space="preserve" xmlns:serif="http://www.serif.com/" style="fill-rule:evenodd;clip-rule:evenodd;stroke-linejoin:round;stroke-miterlimit:2;"><circle cx="15" cy="15" r="15" style="fill-opacity:0.1;"/><path d="M6.124,21.201c1.638,-4.427 3.301,-8.845 4.961,-13.265c0.241,-0.638 0.698,-0.948 1.436,-0.936c1.661,0.03 3.323,0.024 4.984,0.002c0.734,-0.009 1.165,0.314 1.408,0.965c1.645,4.39 3.306,8.774 4.942,13.168c0.425,1.142 -0.102,1.836 -1.363,1.851c-1.474,0.018 -2.946,0.003 -4.421,0.003c-0.442,0 -0.896,0.02 -1.131,-0.458c-0.22,-0.442 0.077,-0.749 0.305,-1.072c0.866,-1.226 1.389,-2.57 1.527,-4.057c0.06,-0.663 -0.234,-0.975 -0.902,-0.977c-0.939,-0.004 -1.881,0 -2.82,0l0,-0.004c-0.909,0 -1.819,-0.012 -2.726,0.004c-0.977,0.016 -1.222,0.298 -1.079,1.251c0.211,1.405 0.742,2.689 1.566,3.865c0.592,0.845 0.309,1.424 -0.715,1.439c-1.566,0.026 -3.135,0.029 -4.701,-0.005c-1.133,-0.026 -1.653,-0.742 -1.271,-1.774Zm7.791,-8.957c0.448,0.519 0.805,1.049 0.965,1.728c0.149,0.634 0.563,0.648 1.025,0.221c0.802,-0.747 0.896,-2.128 0.154,-3.079c-0.416,-0.534 -0.804,-1.04 -0.943,-1.736c-0.113,-0.557 -0.559,-0.61 -0.975,-0.2c-0.458,0.445 -0.71,0.988 -0.701,1.682c-0.039,0.487 0.126,0.984 0.475,1.384Z" style="fill-opacity:0.6;fill-rule:nonzero;"/></svg>