<?xml version="1.0" encoding="UTF-8" standalone="no"?><!DOCTYPE svg PUBLIC "-//W3C//DTD SVG 1.1//EN" "http://www.w3.org/Graphics/SVG/1.1/DTD/svg11.dtd"><svg width="100%" height="100%" viewBox="0 0 1920 1080" version="1.1" xmlns="http://www.w3.org/2000/svg" xmlns:xlink="http://www.w3.org/1999/xlink" xml:space="preserve" xmlns:serif="http://www.serif.com/" style="fill-rule:evenodd;clip-rule:evenodd;stroke-linejoin:round;stroke-miterlimit:2;"><circle cx="960.688" cy="540.459" r="24" style="fill:#fff;"/><path d="M973.688,531.459c0,-0.552 -0.448,-1 -1,-1l-24,0c-0.552,0 -1,0.448 -1,1c0,0.552 0.448,1 1,1l24,0c0.552,0 1,-0.448 1,-1Z" style="fill:#222;"/><path d="M973.688,540.459c0,-0.552 -0.448,-1 -1,-1l-24,0c-0.552,0 -1,0.448 -1,1c0,0.552 0.448,1 1,1l24,0c0.552,0 1,-0.448 1,-1Z" style="fill:#222;"/><path d="M973.688,549.459c0,-0.552 -0.448,-1 -1,-1l-24,0c-0.552,0 -1,0.448 -1,1c0,0.552 0.448,1 1,1l24,0c0.552,0 1,-0.448 1,-1Z" style="fill:#222;"/></svg>